<?xml version="1.0" standalone="no"?><!DOCTYPE svg PUBLIC "-//W3C//DTD SVG 1.1//EN" "http://www.w3.org/Graphics/SVG/1.1/DTD/svg11.dtd"><svg t="1729889599953" class="icon" viewBox="0 0 1024 1024" version="1.1" xmlns="http://www.w3.org/2000/svg" p-id="6308" xmlns:xlink="http://www.w3.org/1999/xlink" width="256" height="256"><path d="M915.96442 107.500563v416.359833c-24.712056 45.387445-74.626174 68.060707-149.742354 68.060707-112.673758 0-148.764388-26.791768-268.329942-26.791768-75.941722 0-128.571844 27.676643-157.820803 82.96139l84.074389 230.988212c6.443732 17.704663 0.933978 29.835125-16.528239 36.391385l-0.531949 0.196411c-17.883684 6.509203-30.079616 0.822474-36.588819-17.060188L111.074845 185.849351c-6.443732-17.70364-0.933978-29.834102 16.52824-36.390362l0.531948-0.197435c17.883684-6.50818 30.079616-0.821451 36.587796 17.061211l21.666654 59.527033c106.219796-62.532539 196.299061-93.799832 270.274621-93.799832 113.285499 0 183.263265 44.32764 276.730629 44.32764 62.310553 0 123.154158-22.958673 182.57071-68.877043z" fill="#323233" p-id="6309"></path></svg>